<mxfile host="app.diagrams.net" agent="Mozilla/5.0 (Windows NT 10.0; Win64; x64) AppleWebKit/537.36 (KHTML, like Gecko) Chrome/129.0.0.0 Safari/537.36" version="24.7.17">
  <diagram name="Page-1" id="p4NSVulmTarPYj4z0CjT">
    <mxGraphModel dx="1195" dy="615" grid="1" gridSize="10" guides="1" tooltips="1" connect="1" arrows="1" fold="1" page="1" pageScale="1" pageWidth="850" pageHeight="1100" background="#000000" math="0" shadow="0">
      <root>
        <mxCell id="0" />
        <mxCell id="1" parent="0" />
        <mxCell id="kT9dJn33GhRSkPyXbfgK-24" style="edgeStyle=orthogonalEdgeStyle;rounded=0;orthogonalLoop=1;jettySize=auto;html=1;exitX=0.5;exitY=1;exitDx=0;exitDy=0;entryX=0.5;entryY=0;entryDx=0;entryDy=0;strokeColor=#FFFFFF;" edge="1" parent="1" source="kT9dJn33GhRSkPyXbfgK-1" target="kT9dJn33GhRSkPyXbfgK-3">
          <mxGeometry relative="1" as="geometry" />
        </mxCell>
        <mxCell id="kT9dJn33GhRSkPyXbfgK-1" value="Start" style="ellipse;whiteSpace=wrap;html=1;fillColor=#1A1A1A;fontColor=#FFFFFF;" vertex="1" parent="1">
          <mxGeometry x="390" y="290" width="60" height="40" as="geometry" />
        </mxCell>
        <mxCell id="kT9dJn33GhRSkPyXbfgK-25" style="edgeStyle=orthogonalEdgeStyle;rounded=0;orthogonalLoop=1;jettySize=auto;html=1;exitX=0.5;exitY=1;exitDx=0;exitDy=0;entryX=0.5;entryY=0;entryDx=0;entryDy=0;strokeColor=#FFFFFF;" edge="1" parent="1" source="kT9dJn33GhRSkPyXbfgK-3" target="kT9dJn33GhRSkPyXbfgK-7">
          <mxGeometry relative="1" as="geometry" />
        </mxCell>
        <mxCell id="kT9dJn33GhRSkPyXbfgK-3" value="Loop over frames of video" style="rounded=1;whiteSpace=wrap;html=1;fillColor=#1A1A1A;fontColor=#FFFFFF;" vertex="1" parent="1">
          <mxGeometry x="360" y="370" width="120" height="60" as="geometry" />
        </mxCell>
        <mxCell id="kT9dJn33GhRSkPyXbfgK-27" style="edgeStyle=orthogonalEdgeStyle;rounded=0;orthogonalLoop=1;jettySize=auto;html=1;exitX=0.5;exitY=1;exitDx=0;exitDy=0;entryX=0.5;entryY=0;entryDx=0;entryDy=0;strokeColor=#FFFFFF;" edge="1" parent="1" source="kT9dJn33GhRSkPyXbfgK-4" target="kT9dJn33GhRSkPyXbfgK-5">
          <mxGeometry relative="1" as="geometry" />
        </mxCell>
        <mxCell id="kT9dJn33GhRSkPyXbfgK-4" value="Use fine-tuned YOLOv8 model to predict bounding box coordinates in the current frame" style="rounded=1;whiteSpace=wrap;html=1;fillColor=#1A1A1A;fontColor=#FFFFFF;" vertex="1" parent="1">
          <mxGeometry x="550" y="370" width="200" height="60" as="geometry" />
        </mxCell>
        <mxCell id="kT9dJn33GhRSkPyXbfgK-28" style="edgeStyle=orthogonalEdgeStyle;rounded=0;orthogonalLoop=1;jettySize=auto;html=1;exitX=0.5;exitY=1;exitDx=0;exitDy=0;entryX=0.5;entryY=0;entryDx=0;entryDy=0;strokeColor=#FFFFFF;" edge="1" parent="1" source="kT9dJn33GhRSkPyXbfgK-5" target="kT9dJn33GhRSkPyXbfgK-6">
          <mxGeometry relative="1" as="geometry" />
        </mxCell>
        <mxCell id="kT9dJn33GhRSkPyXbfgK-5" value="Enlarge bounding box region" style="rounded=1;whiteSpace=wrap;html=1;fillColor=#1A1A1A;fontColor=#FFFFFF;" vertex="1" parent="1">
          <mxGeometry x="590" y="460" width="120" height="60" as="geometry" />
        </mxCell>
        <mxCell id="kT9dJn33GhRSkPyXbfgK-12" style="edgeStyle=orthogonalEdgeStyle;rounded=0;orthogonalLoop=1;jettySize=auto;html=1;exitX=0;exitY=0.5;exitDx=0;exitDy=0;entryX=1;entryY=0.5;entryDx=0;entryDy=0;strokeColor=#FFFFFF;" edge="1" parent="1" source="kT9dJn33GhRSkPyXbfgK-6" target="kT9dJn33GhRSkPyXbfgK-7">
          <mxGeometry relative="1" as="geometry" />
        </mxCell>
        <mxCell id="kT9dJn33GhRSkPyXbfgK-6" value="Save annotated frame" style="rounded=1;whiteSpace=wrap;html=1;fillColor=#1A1A1A;fontColor=#FFFFFF;" vertex="1" parent="1">
          <mxGeometry x="590" y="550" width="120" height="60" as="geometry" />
        </mxCell>
        <mxCell id="kT9dJn33GhRSkPyXbfgK-11" style="edgeStyle=orthogonalEdgeStyle;rounded=0;orthogonalLoop=1;jettySize=auto;html=1;exitX=1;exitY=0;exitDx=0;exitDy=0;entryX=0;entryY=0.5;entryDx=0;entryDy=0;strokeColor=#FFFFFF;" edge="1" parent="1" source="kT9dJn33GhRSkPyXbfgK-7" target="kT9dJn33GhRSkPyXbfgK-4">
          <mxGeometry relative="1" as="geometry" />
        </mxCell>
        <mxCell id="kT9dJn33GhRSkPyXbfgK-29" value="&lt;font style=&quot;font-size: 20px;&quot;&gt;No&lt;/font&gt;" style="edgeLabel;html=1;align=center;verticalAlign=middle;resizable=0;points=[];labelBackgroundColor=none;fontColor=#FFFFFF;" vertex="1" connectable="0" parent="kT9dJn33GhRSkPyXbfgK-11">
          <mxGeometry x="0.0222" y="2" relative="1" as="geometry">
            <mxPoint x="-23" y="7" as="offset" />
          </mxGeometry>
        </mxCell>
        <mxCell id="kT9dJn33GhRSkPyXbfgK-13" style="edgeStyle=orthogonalEdgeStyle;rounded=0;orthogonalLoop=1;jettySize=auto;html=1;exitX=0.5;exitY=1;exitDx=0;exitDy=0;entryX=0.5;entryY=0;entryDx=0;entryDy=0;strokeColor=#FFFFFF;" edge="1" parent="1" source="kT9dJn33GhRSkPyXbfgK-7" target="kT9dJn33GhRSkPyXbfgK-8">
          <mxGeometry relative="1" as="geometry" />
        </mxCell>
        <mxCell id="kT9dJn33GhRSkPyXbfgK-30" value="&lt;font style=&quot;font-size: 20px;&quot;&gt;Yes&lt;/font&gt;" style="edgeLabel;html=1;align=center;verticalAlign=middle;resizable=0;points=[];labelBackgroundColor=none;fontColor=#FFFFFF;" vertex="1" connectable="0" parent="kT9dJn33GhRSkPyXbfgK-13">
          <mxGeometry x="-0.6" y="1" relative="1" as="geometry">
            <mxPoint x="29" y="-4" as="offset" />
          </mxGeometry>
        </mxCell>
        <mxCell id="kT9dJn33GhRSkPyXbfgK-7" value="All frames done?" style="rhombus;whiteSpace=wrap;html=1;fillColor=#1A1A1A;fontColor=#FFFFFF;" vertex="1" parent="1">
          <mxGeometry x="380" y="450" width="80" height="80" as="geometry" />
        </mxCell>
        <mxCell id="kT9dJn33GhRSkPyXbfgK-14" style="edgeStyle=orthogonalEdgeStyle;rounded=0;orthogonalLoop=1;jettySize=auto;html=1;exitX=0.5;exitY=1;exitDx=0;exitDy=0;entryX=0.5;entryY=0;entryDx=0;entryDy=0;strokeColor=#FFFFFF;" edge="1" parent="1" source="kT9dJn33GhRSkPyXbfgK-8" target="kT9dJn33GhRSkPyXbfgK-9">
          <mxGeometry relative="1" as="geometry" />
        </mxCell>
        <mxCell id="kT9dJn33GhRSkPyXbfgK-8" value="Loop over saved frames" style="rounded=1;whiteSpace=wrap;html=1;fillColor=#1A1A1A;fontColor=#FFFFFF;" vertex="1" parent="1">
          <mxGeometry x="360" y="550" width="120" height="60" as="geometry" />
        </mxCell>
        <mxCell id="kT9dJn33GhRSkPyXbfgK-17" style="edgeStyle=orthogonalEdgeStyle;rounded=0;orthogonalLoop=1;jettySize=auto;html=1;exitX=0;exitY=0;exitDx=0;exitDy=0;entryX=1;entryY=0.5;entryDx=0;entryDy=0;strokeColor=#FFFFFF;" edge="1" parent="1" source="kT9dJn33GhRSkPyXbfgK-9" target="kT9dJn33GhRSkPyXbfgK-15">
          <mxGeometry relative="1" as="geometry" />
        </mxCell>
        <mxCell id="kT9dJn33GhRSkPyXbfgK-31" value="&lt;font style=&quot;font-size: 20px;&quot;&gt;No&lt;/font&gt;" style="edgeLabel;html=1;align=center;verticalAlign=middle;resizable=0;points=[];labelBackgroundColor=none;fontColor=#FFFFFF;" vertex="1" connectable="0" parent="kT9dJn33GhRSkPyXbfgK-17">
          <mxGeometry x="0.0846" relative="1" as="geometry">
            <mxPoint x="18" y="-7" as="offset" />
          </mxGeometry>
        </mxCell>
        <mxCell id="kT9dJn33GhRSkPyXbfgK-23" style="edgeStyle=orthogonalEdgeStyle;rounded=0;orthogonalLoop=1;jettySize=auto;html=1;exitX=0.5;exitY=1;exitDx=0;exitDy=0;entryX=0.5;entryY=0;entryDx=0;entryDy=0;strokeColor=#FFFFFF;" edge="1" parent="1" source="kT9dJn33GhRSkPyXbfgK-9" target="kT9dJn33GhRSkPyXbfgK-10">
          <mxGeometry relative="1" as="geometry" />
        </mxCell>
        <mxCell id="kT9dJn33GhRSkPyXbfgK-32" value="&lt;font style=&quot;font-size: 20px;&quot;&gt;Yes&lt;/font&gt;" style="edgeLabel;html=1;align=center;verticalAlign=middle;resizable=0;points=[];labelBackgroundColor=none;fontColor=#FFFFFF;" vertex="1" connectable="0" parent="kT9dJn33GhRSkPyXbfgK-23">
          <mxGeometry x="-0.0667" y="-2" relative="1" as="geometry">
            <mxPoint x="27" y="-4" as="offset" />
          </mxGeometry>
        </mxCell>
        <mxCell id="kT9dJn33GhRSkPyXbfgK-9" value="All annotated frames done?" style="rhombus;whiteSpace=wrap;html=1;fillColor=#1A1A1A;fontColor=#FFFFFF;" vertex="1" parent="1">
          <mxGeometry x="375" y="640" width="100" height="80" as="geometry" />
        </mxCell>
        <mxCell id="kT9dJn33GhRSkPyXbfgK-10" value="End" style="ellipse;whiteSpace=wrap;html=1;fillColor=#1A1A1A;fontColor=#FFFFFF;" vertex="1" parent="1">
          <mxGeometry x="395" y="750" width="60" height="40" as="geometry" />
        </mxCell>
        <mxCell id="kT9dJn33GhRSkPyXbfgK-22" style="edgeStyle=orthogonalEdgeStyle;rounded=0;orthogonalLoop=1;jettySize=auto;html=1;exitX=0.5;exitY=1;exitDx=0;exitDy=0;entryX=0.5;entryY=0;entryDx=0;entryDy=0;strokeColor=#FFFFFF;" edge="1" parent="1" source="kT9dJn33GhRSkPyXbfgK-15" target="kT9dJn33GhRSkPyXbfgK-16">
          <mxGeometry relative="1" as="geometry" />
        </mxCell>
        <mxCell id="kT9dJn33GhRSkPyXbfgK-15" value="Resize Frame to 640x640" style="rounded=1;whiteSpace=wrap;html=1;fillColor=#1A1A1A;fontColor=#FFFFFF;" vertex="1" parent="1">
          <mxGeometry x="190" y="590" width="120" height="60" as="geometry" />
        </mxCell>
        <mxCell id="kT9dJn33GhRSkPyXbfgK-21" style="edgeStyle=orthogonalEdgeStyle;rounded=0;orthogonalLoop=1;jettySize=auto;html=1;exitX=0.5;exitY=1;exitDx=0;exitDy=0;entryX=0;entryY=0.5;entryDx=0;entryDy=0;strokeColor=#FFFFFF;" edge="1" parent="1" source="kT9dJn33GhRSkPyXbfgK-16" target="kT9dJn33GhRSkPyXbfgK-9">
          <mxGeometry relative="1" as="geometry" />
        </mxCell>
        <mxCell id="kT9dJn33GhRSkPyXbfgK-16" value="Write to video file" style="rounded=1;whiteSpace=wrap;html=1;fillColor=#1A1A1A;fontColor=#FFFFFF;" vertex="1" parent="1">
          <mxGeometry x="190" y="680" width="120" height="60" as="geometry" />
        </mxCell>
      </root>
    </mxGraphModel>
  </diagram>
</mxfile>
